<svg version="1.1" preserveAspectRatio="none" xmlns="http://www.w3.org/2000/svg" width="500" height="500" viewBox="0 0 500 500"><rect width="100%" height="100%" fill="#FBE7E7" fill-opacity="1"/><svg viewBox="71.441 213.5 332.0592 40" width="333" height="40.113329189493925" x="83.5px" y="229.9433px" xmlns="http://www.w3.org/2000/svg" xmlns:xlink="http://www.w3.org/1999/xlink" preserveAspectRatio="none"><defs></defs><style>.companyName {fill:#CAB58D;fill-opacity:1;}.icon3-str {stroke:#947327;stroke-opacity:1;}</style><g opacity="1" transform="rotate(0 71.441 213.5)">
<svg width="332.0592" height="40" x="71.441" y="213.5" version="1.1" preserveAspectRatio="none" viewBox="1.6 -26.8 225.79999999999998 27.2">
  <g transform="matrix(1 0 0 1 0 0)" class="companyName"><defs><path id="id-D6z1nYkh9" d="M13.16 0.40L13.16 0.40Q9.60 0.40 7.02-1Q4.44-2.40 3.02-4.84Q1.60-7.28 1.60-10.40L1.60-10.40Q1.60-13.60 2.86-16.54Q4.12-19.48 6.36-21.80Q8.60-24.12 11.60-25.46Q14.60-26.80 18.08-26.80L18.08-26.80Q20.52-26.80 21.96-26.24Q23.40-25.68 24.72-24.88L24.72-24.88L24.04-17.12L23.32-17.12L20.12-24.28Q19.20-24.88 17.48-24.88L17.48-24.88Q15.64-24.88 14.04-23.68Q12.44-22.48 11.24-20.36Q10.04-18.24 9.36-15.42Q8.68-12.60 8.68-9.36L8.68-9.36Q8.68-5.92 10.10-3.82Q11.52-1.72 14.08-1.72L14.08-1.72Q14.96-1.72 15.86-1.90Q16.76-2.08 17.68-2.56L17.68-2.56L22.80-8.76L23.52-8.76L21.84-1.76Q20.32-0.72 17.92-0.16Q15.52 0.40 13.16 0.40Z M37.12 0L25.28 0L25.40-0.64L28.40-2.32L31.48-20.08L29.08-21.76L29.20-22.40L40.92-22.40L40.80-21.76L38.12-20.08L36.84-12.60L43.24-12.60L44.56-20.08L42.44-21.76L42.56-22.40L54.24-22.40L54.12-21.76L51.16-20.08L48.04-2.32L50.44-0.64L50.32 0L38.60 0L38.72-0.64L41.44-2.32L42.88-10.56L36.48-10.56L35.04-2.32L37.24-0.64L37.12 0Z M64.84 0.40L64.84 0.40Q61.72 0.40 59.42-0.78Q57.12-1.96 55.88-4.12Q54.64-6.28 54.64-9.20L54.64-9.20Q54.64-11.76 55.58-14.20Q56.52-16.64 58.30-18.60Q60.08-20.56 62.60-21.70Q65.12-22.84 68.24-22.84L68.24-22.84Q71.36-22.84 73.64-21.66Q75.92-20.48 77.18-18.32Q78.44-16.16 78.44-13.24L78.44-13.24Q78.44-10.64 77.50-8.22Q76.56-5.80 74.78-3.84Q73-1.88 70.48-0.74Q67.96 0.40 64.84 0.40ZM65.04-1.80L65.04-1.80Q66.56-1.80 67.78-2.80Q69-3.80 69.84-5.54Q70.68-7.28 71.12-9.48Q71.56-11.68 71.56-14.08L71.56-14.08Q71.56-15.88 71.30-17.38Q71.04-18.88 70.28-19.76Q69.52-20.64 68.12-20.64L68.12-20.64Q66.68-20.64 65.48-19.62Q64.28-18.60 63.42-16.86Q62.56-15.12 62.08-12.90Q61.60-10.68 61.60-8.32L61.60-8.32Q61.60-6.52 61.86-5.04Q62.12-3.56 62.86-2.68Q63.60-1.80 65.04-1.80Z M91.88 0.40L91.88 0.40Q88.76 0.40 86.46-0.80Q84.16-2 82.90-4.08Q81.64-6.16 81.64-8.84L81.64-8.84Q81.64-11.56 82.74-14.08Q83.84-16.60 85.80-18.58Q87.76-20.56 90.38-21.70Q93-22.84 96.04-22.84L96.04-22.84Q98.28-22.84 99.60-22.38Q100.92-21.92 102.08-21.20L102.08-21.20L101.52-14.20L100.88-14.20L98.08-20.20Q97.68-20.44 97.18-20.58Q96.68-20.72 95.92-20.72L95.92-20.72Q93.84-20.72 92.14-19.02Q90.44-17.32 89.44-14.42Q88.44-11.52 88.44-7.92L88.44-7.92Q88.44-5.16 89.68-3.48Q90.92-1.80 93.12-1.80L93.12-1.80Q93.80-1.80 94.52-1.92Q95.24-2.04 95.96-2.48L95.96-2.48L100.52-7.80L101.16-7.80L99.64-1.44Q98.28-0.56 96.14-0.08Q94 0.40 91.88 0.40Z M115.64 0.40L115.64 0.40Q112.52 0.40 110.22-0.78Q107.92-1.96 106.68-4.12Q105.44-6.28 105.44-9.20L105.44-9.20Q105.44-11.76 106.38-14.20Q107.32-16.64 109.10-18.60Q110.88-20.56 113.40-21.70Q115.92-22.84 119.04-22.84L119.04-22.84Q122.16-22.84 124.44-21.66Q126.72-20.48 127.98-18.32Q129.24-16.16 129.24-13.24L129.24-13.24Q129.24-10.64 128.30-8.22Q127.36-5.80 125.58-3.84Q123.80-1.88 121.28-0.74Q118.76 0.40 115.64 0.40ZM115.84-1.80L115.84-1.80Q117.36-1.80 118.58-2.80Q119.80-3.80 120.64-5.54Q121.48-7.28 121.92-9.48Q122.36-11.68 122.36-14.08L122.36-14.08Q122.36-15.88 122.10-17.38Q121.84-18.88 121.08-19.76Q120.32-20.64 118.92-20.64L118.92-20.64Q117.48-20.64 116.28-19.62Q115.08-18.60 114.22-16.86Q113.36-15.12 112.88-12.90Q112.40-10.68 112.40-8.32L112.40-8.32Q112.40-6.52 112.66-5.04Q112.92-3.56 113.66-2.68Q114.40-1.80 115.84-1.80Z M148.08 0L129.64 0L129.76-0.64L132.80-2.32L135.88-20.08L133.48-21.76L133.60-22.40L145.96-22.40L145.88-21.76L142.52-20.08L139.40-2.20L144.60-2.20L149-8.32L149.64-8.32L148.08 0Z M156.20 0L149.24 0L149.36-0.64L151.44-1.88L163.48-22.60L167.08-22.60L171.64-2.12L173.68-0.64L173.56 0L161.80 0L161.88-0.64L164.68-2L163.64-6.92L156.96-6.92L154.04-1.88L156.32-0.64L156.20 0ZM161.80-15.36L158.12-8.96L163.20-8.96L161.80-15.36Z M184.76 0L175.40 0L175.52-0.64L178.56-2.36L181.72-20.44L179.24-21.88L179.36-22.40L186.76-22.40L195.64-8.40L197.68-20.08L194.24-21.80L194.32-22.40L203.60-22.40L203.52-21.80L200.52-20.08L196.96 0.16L193.52 0.16L183.64-15.16L181.40-2.36L184.84-0.64L184.76 0Z M212.72 0L201.20 0L201.32-0.64L204.24-2.32L207.32-20.08L205.04-21.76L205.16-22.40L215.80-22.40Q221.40-22.40 224.40-19.76Q227.40-17.12 227.40-12.76L227.40-12.76Q227.40-9.88 226.26-7.54Q225.12-5.20 223.10-3.50Q221.08-1.80 218.42-0.90Q215.76 0 212.72 0L212.72 0ZM214.08-20.20L214.08-20.20L214.00-20.20L210.84-2.04L212.36-2.04Q214.64-2.04 216.52-3.44Q218.40-4.84 219.52-7.34Q220.64-9.84 220.64-13.16L220.64-13.16Q220.64-16.44 218.88-18.32Q217.12-20.20 214.08-20.20Z"/></defs>
  <clipPath id="id-D6z1nYkh9-clip"><use xlink:href="#id-D6z1nYkh9" /></clipPath>
  <g clip-path="url(#id-D6z1nYkh9-clip)"><use xlink:href="#id-D6z1nYkh9" class="icon3-str" style="stroke-width:4;"/></g>
  </g>
</svg>
</g></svg></svg>